<svg width="30" height="30" viewBox="0 0 30 30" fill="none" xmlns="http://www.w3.org/2000/svg">
<path d="M0 14.9974C0.00174525 22.3762 5.36742 28.659 12.6551 29.8154V19.3323H8.84969V14.9974H12.6596V11.6975C12.4892 10.1339 13.0233 8.57553 14.117 7.44508C15.2106 6.31463 16.7504 5.72926 18.3189 5.84774C19.4446 5.86592 20.5676 5.96618 21.6787 6.14773V9.8361H19.7828C19.1301 9.75061 18.4739 9.96618 17.999 10.4221C17.5242 10.878 17.2821 11.5249 17.3409 12.1805V14.9974H21.4973L20.8328 19.3338H17.3409V29.8154C25.2223 28.5698 30.7491 21.3719 29.9172 13.4361C29.0854 5.5003 22.1862 -0.395153 14.2177 0.0207064C6.24933 0.436566 0.00126667 7.01816 0 14.9974Z" fill="#E8E7E7"/>
</svg>
