<svg width="30" height="31" viewBox="0 0 30 31" fill="none" xmlns="http://www.w3.org/2000/svg">
<path d="M14.9917 30.0433C10.8939 30.0433 10.4109 30.0217 8.81177 29.9517C7.56475 29.9107 6.33387 29.6572 5.17213 29.2021C3.1621 28.4199 1.57269 26.8299 0.791227 24.8195C0.353647 23.6536 0.117631 22.4217 0.0932815 21.1766C0 19.5808 0 19.0577 0 14.9917C0 10.8823 0.0216546 10.4026 0.0932815 8.81177C0.118164 7.56833 0.354172 6.33816 0.791227 5.17379C1.57185 3.16079 3.16383 1.56942 5.17712 0.789561C6.34088 0.350143 7.57137 0.113511 8.8151 0.08995C10.4059 0 10.9289 0 14.9917 0C19.1227 0 19.5974 0.0216546 21.1716 0.08995C22.4185 0.113715 23.6523 0.350321 24.8195 0.789561C26.8323 1.5703 28.4239 3.16137 29.2054 5.17379C29.6504 6.35513 29.8877 7.60453 29.9067 8.86674C30 10.4625 30 10.9839 30 15.0483C30 19.1127 29.9767 19.6458 29.9067 21.2232C29.8819 22.4695 29.6453 23.7025 29.2071 24.8695C28.4236 26.8812 26.8319 28.4718 24.8195 29.2537C23.6539 29.6905 22.4227 29.9265 21.1782 29.9517C19.5875 30.0433 19.0661 30.0433 14.9917 30.0433ZM14.935 2.63687C10.8606 2.63687 10.4375 2.65686 8.84675 2.72848C7.89725 2.74106 6.95693 2.91628 6.06663 3.24653C4.75195 3.7496 3.71165 4.78566 3.20322 6.09828C2.87043 6.99828 2.69518 7.94888 2.68517 8.90838C2.59689 10.5225 2.59689 10.9456 2.59689 14.9917C2.59689 18.9895 2.61188 19.4742 2.68517 21.0783C2.70009 22.0281 2.87523 22.9686 3.20322 23.8601C3.7124 25.1718 4.75252 26.2071 6.06663 26.7102C6.95633 27.0426 7.89703 27.2179 8.84675 27.2282C10.4592 27.3215 10.884 27.3215 14.935 27.3215C19.0211 27.3215 19.4442 27.3015 21.0217 27.2282C21.9718 27.2166 22.9128 27.0414 23.8034 26.7102C25.1102 26.2028 26.1437 25.1698 26.6519 23.8634C26.984 22.9627 27.1592 22.0116 27.1699 21.0516H27.1882C27.2599 19.4592 27.2599 19.0344 27.2599 14.965C27.2599 10.8956 27.2415 10.4675 27.1699 8.87673C27.155 7.92801 26.9798 6.98864 26.6519 6.09828C26.1448 4.78996 25.1112 3.75507 23.8034 3.24653C22.913 2.91462 21.9719 2.73935 21.0217 2.72848C19.4109 2.63687 18.9895 2.63687 14.935 2.63687ZM14.9917 22.6857C11.8767 22.6877 9.06733 20.813 7.87373 17.9358C6.68013 15.0586 7.33743 11.7457 9.53909 9.54213C11.7407 7.33858 15.0531 6.67841 17.9313 7.86951C20.8095 9.06062 22.6867 11.8684 22.6874 14.9833C22.6828 19.2328 19.2411 22.6775 14.9917 22.6857ZM14.9917 9.98279C12.2318 9.98279 9.99445 12.2201 9.99445 14.98C9.99445 17.7399 12.2318 19.9772 14.9917 19.9772C17.7516 19.9772 19.9889 17.7399 19.9889 14.98C19.9825 12.2228 17.7489 9.9892 14.9917 9.98279ZM22.9872 8.79512C21.9968 8.79144 21.1964 7.98654 21.1982 6.99613C21.2001 6.00571 22.0035 5.20379 22.9939 5.20379C23.9843 5.20379 24.7877 6.0057 24.7896 6.99611C24.79 7.47395 24.6002 7.9323 24.262 8.26987C23.9238 8.60744 23.4651 8.79644 22.9872 8.79512Z" fill="#E8E7E7"/>
</svg>
