<svg width="30" height="30" viewBox="0 0 30 30" fill="none" xmlns="http://www.w3.org/2000/svg">
<path fill-rule="evenodd" clip-rule="evenodd" d="M14.9753 29.6768C6.70346 29.6768 0.000305176 23.0752 0.000305176 14.9342C0.000305176 6.79311 6.70346 0.193115 14.9753 0.193115C23.2456 0.193115 29.9504 6.79311 29.9504 14.9342C29.9504 23.0752 23.2456 29.6768 14.9753 29.6768ZM1.38585 14.9343C1.38585 20.5933 4.96279 25.428 10.0106 27.3749C9.89191 26.3185 9.78605 24.697 10.0587 23.5412C10.3041 22.4991 11.6499 16.9017 11.6499 16.9017C11.6499 16.9017 11.2441 16.1012 11.2441 14.9185C11.2441 13.0601 12.3364 11.6738 13.6998 11.6738C14.8563 11.6738 15.4161 12.5296 15.4161 13.5559C15.4161 14.7022 14.6751 16.4154 14.2917 18.0038C13.9725 19.3349 14.9702 20.418 16.3015 20.418C18.714 20.418 20.5682 17.9138 20.5682 14.2996C20.5682 11.1006 18.2344 8.86485 14.8996 8.86485C11.0388 8.86485 8.77232 11.7164 8.77232 14.6627C8.77232 15.8106 9.21983 17.0422 9.78124 17.7117C9.89191 17.8443 9.90795 17.9596 9.87587 18.0954C9.77322 18.517 9.54384 19.4249 9.49893 19.6096C9.43958 19.8543 9.30164 19.9064 9.04339 19.7896C7.34956 19.0127 6.29091 16.5717 6.29091 14.6138C6.29091 10.3996 9.40109 6.52801 15.2573 6.52801C19.9651 6.52801 23.6238 9.83117 23.6238 14.2443C23.6238 18.8485 20.6741 22.5543 16.5822 22.5543C15.206 22.5543 13.9132 21.8501 13.4705 21.0196C13.4705 21.0196 12.7904 23.5696 12.6251 24.1949C12.3188 25.3554 11.4911 26.8096 10.9393 27.697C12.2081 28.0854 13.5571 28.2938 14.9574 28.2938C22.4529 28.2938 28.5289 22.3127 28.5289 14.9343C28.5289 7.55433 22.4529 1.57485 14.9574 1.57485C7.46184 1.57485 1.38585 7.55433 1.38585 14.9343Z" fill="white"/>
</svg>
