<svg width="789" height="178" viewBox="0 0 789 178" fill="none" xmlns="http://www.w3.org/2000/svg">
<rect width="789" height="178" rx="40" fill="black"/>
<path d="M2 144H788.5V115.5C788.5 115.5 770.5 40.5 739.5 34.5C640.272 15.2946 561.078 106.38 461 120.5C329.774 139.015 118 -20.0001 57 8.99997C21.5541 25.8513 2 115.5 2 115.5V144Z" fill="#009C8E" fill-opacity="0.9"/>
<path d="M1.5 109C1.5 109 283.2 35.5841 360.5 36C470.183 36.5901 362.718 112.111 472 121.5C595.999 132.153 787.5 116.5 787.5 116.5V144H1.5V109Z" fill="#E87121" fill-opacity="0.9"/>
<path d="M0 108.812C0 108.812 80.5059 50.5841 158.101 51.0022C268.203 51.5955 362.597 111.941 472.296 121.379C596.768 132.09 789 116.353 789 116.353V144H0.500634L0 108.812Z" fill="#078E25" fill-opacity="0.9"/>
<path d="M0.500244 144C0.500244 144 1.00024 155.5 12.0002 166.5C23.7529 178.253 38.5002 178 38.5002 178H751C751 178 766.249 177.765 777.478 166C787.5 155.5 789 144 789 144H0.500244Z" fill="#078E25"/>
<path d="M40.704 113.28C38.7253 113.28 36.9333 112.851 35.328 111.992C33.7413 111.115 32.4907 109.911 31.576 108.38C30.68 106.849 30.232 105.123 30.232 103.2C30.232 101.277 30.6893 99.5507 31.604 98.02C32.5187 96.4893 33.7693 95.2947 35.356 94.436C36.9613 93.5587 38.7533 93.12 40.732 93.12C42.3373 93.12 43.8027 93.4 45.128 93.96C46.4533 94.52 47.5733 95.332 48.488 96.396L46.136 98.608C44.7173 97.0773 42.972 96.312 40.9 96.312C39.556 96.312 38.352 96.6107 37.288 97.208C36.224 97.7867 35.3933 98.5987 34.796 99.644C34.1987 100.689 33.9 101.875 33.9 103.2C33.9 104.525 34.1987 105.711 34.796 106.756C35.3933 107.801 36.224 108.623 37.288 109.22C38.352 109.799 39.556 110.088 40.9 110.088C42.972 110.088 44.7173 109.313 46.136 107.764L48.488 110.004C47.5733 111.068 46.444 111.88 45.1 112.44C43.7747 113 42.3093 113.28 40.704 113.28ZM57.8129 113.196C56.3009 113.196 54.9382 112.869 53.7249 112.216C52.5115 111.563 51.5595 110.657 50.8689 109.5C50.1969 108.324 49.8609 106.999 49.8609 105.524C49.8609 104.049 50.1969 102.733 50.8689 101.576C51.5595 100.419 52.5115 99.5133 53.7249 98.86C54.9382 98.2067 56.3009 97.88 57.8129 97.88C59.3435 97.88 60.7155 98.2067 61.9289 98.86C63.1422 99.5133 64.0849 100.419 64.7569 101.576C65.4475 102.733 65.7929 104.049 65.7929 105.524C65.7929 106.999 65.4475 108.324 64.7569 109.5C64.0849 110.657 63.1422 111.563 61.9289 112.216C60.7155 112.869 59.3435 113.196 57.8129 113.196ZM57.8129 110.2C59.1009 110.2 60.1649 109.771 61.0049 108.912C61.8449 108.053 62.2649 106.924 62.2649 105.524C62.2649 104.124 61.8449 102.995 61.0049 102.136C60.1649 101.277 59.1009 100.848 57.8129 100.848C56.5249 100.848 55.4609 101.277 54.6209 102.136C53.7995 102.995 53.3889 104.124 53.3889 105.524C53.3889 106.924 53.7995 108.053 54.6209 108.912C55.4609 109.771 56.5249 110.2 57.8129 110.2ZM88.0118 97.88C89.8971 97.88 91.3904 98.4307 92.4918 99.532C93.5931 100.615 94.1438 102.248 94.1438 104.432V113H90.6438V104.88C90.6438 103.573 90.3544 102.593 89.7758 101.94C89.1971 101.268 88.3664 100.932 87.2838 100.932C86.1078 100.932 85.1651 101.324 84.4558 102.108C83.7464 102.873 83.3918 103.975 83.3918 105.412V113H79.8918V104.88C79.8918 103.573 79.6024 102.593 79.0238 101.94C78.4451 101.268 77.6144 100.932 76.5318 100.932C75.3371 100.932 74.3851 101.315 73.6758 102.08C72.9851 102.845 72.6398 103.956 72.6398 105.412V113H69.1398V98.048H72.4718V99.952C73.0318 99.28 73.7318 98.7667 74.5718 98.412C75.4118 98.0573 76.3451 97.88 77.3718 97.88C78.4918 97.88 79.4811 98.0947 80.3398 98.524C81.2171 98.9347 81.9078 99.5507 82.4118 100.372C83.0278 99.588 83.8211 98.9813 84.7918 98.552C85.7624 98.104 86.8358 97.88 88.0118 97.88ZM106.904 97.88C108.36 97.88 109.658 98.1973 110.796 98.832C111.954 99.4667 112.859 100.363 113.512 101.52C114.166 102.677 114.492 104.012 114.492 105.524C114.492 107.036 114.166 108.38 113.512 109.556C112.859 110.713 111.954 111.609 110.796 112.244C109.658 112.879 108.36 113.196 106.904 113.196C104.888 113.196 103.292 112.524 102.116 111.18V118.432H98.6163V98.048H101.948V100.008C102.527 99.2987 103.236 98.7667 104.076 98.412C104.935 98.0573 105.878 97.88 106.904 97.88ZM106.512 110.2C107.8 110.2 108.855 109.771 109.676 108.912C110.516 108.053 110.936 106.924 110.936 105.524C110.936 104.124 110.516 102.995 109.676 102.136C108.855 101.277 107.8 100.848 106.512 100.848C105.672 100.848 104.916 101.044 104.244 101.436C103.572 101.809 103.04 102.351 102.648 103.06C102.256 103.769 102.06 104.591 102.06 105.524C102.06 106.457 102.256 107.279 102.648 107.988C103.04 108.697 103.572 109.248 104.244 109.64C104.916 110.013 105.672 110.2 106.512 110.2ZM121.144 100.232C122.152 98.664 123.925 97.88 126.464 97.88V101.212C126.165 101.156 125.894 101.128 125.652 101.128C124.289 101.128 123.225 101.529 122.46 102.332C121.694 103.116 121.312 104.255 121.312 105.748V113H117.812V98.048H121.144V100.232ZM143.352 105.608C143.352 105.851 143.333 106.196 143.296 106.644H131.564C131.769 107.745 132.301 108.623 133.16 109.276C134.037 109.911 135.12 110.228 136.408 110.228C138.051 110.228 139.404 109.687 140.468 108.604L142.344 110.76C141.672 111.563 140.823 112.169 139.796 112.58C138.769 112.991 137.612 113.196 136.324 113.196C134.681 113.196 133.235 112.869 131.984 112.216C130.733 111.563 129.763 110.657 129.072 109.5C128.4 108.324 128.064 106.999 128.064 105.524C128.064 104.068 128.391 102.761 129.044 101.604C129.716 100.428 130.64 99.5133 131.816 98.86C132.992 98.2067 134.317 97.88 135.792 97.88C137.248 97.88 138.545 98.2067 139.684 98.86C140.841 99.4947 141.737 100.4 142.372 101.576C143.025 102.733 143.352 104.077 143.352 105.608ZM135.792 100.68C134.672 100.68 133.72 101.016 132.936 101.688C132.171 102.341 131.704 103.219 131.536 104.32H140.02C139.871 103.237 139.413 102.36 138.648 101.688C137.883 101.016 136.931 100.68 135.792 100.68ZM168.928 98.048V113H165.596V111.096C165.036 111.768 164.336 112.291 163.496 112.664C162.656 113.019 161.751 113.196 160.78 113.196C158.783 113.196 157.206 112.645 156.048 111.544C154.91 110.424 154.34 108.772 154.34 106.588V98.048H157.84V106.112C157.84 107.456 158.139 108.464 158.736 109.136C159.352 109.789 160.22 110.116 161.34 110.116C162.591 110.116 163.58 109.733 164.308 108.968C165.055 108.184 165.428 107.064 165.428 105.608V98.048H168.928ZM192.383 97.88C194.268 97.88 195.762 98.4307 196.863 99.532C197.964 100.615 198.515 102.248 198.515 104.432V113H195.015V104.88C195.015 103.573 194.726 102.593 194.147 101.94C193.568 101.268 192.738 100.932 191.655 100.932C190.479 100.932 189.536 101.324 188.827 102.108C188.118 102.873 187.763 103.975 187.763 105.412V113H184.263V104.88C184.263 103.573 183.974 102.593 183.395 101.94C182.816 101.268 181.986 100.932 180.903 100.932C179.708 100.932 178.756 101.315 178.047 102.08C177.356 102.845 177.011 103.956 177.011 105.412V113H173.511V98.048H176.843V99.952C177.403 99.28 178.103 98.7667 178.943 98.412C179.783 98.0573 180.716 97.88 181.743 97.88C182.863 97.88 183.852 98.0947 184.711 98.524C185.588 98.9347 186.279 99.5507 186.783 100.372C187.399 99.588 188.192 98.9813 189.163 98.552C190.134 98.104 191.207 97.88 192.383 97.88ZM208.699 97.88C210.902 97.88 212.582 98.412 213.739 99.476C214.915 100.521 215.503 102.108 215.503 104.236V113H212.199V111.18C211.77 111.833 211.154 112.337 210.351 112.692C209.567 113.028 208.615 113.196 207.495 113.196C206.375 113.196 205.395 113.009 204.555 112.636C203.715 112.244 203.062 111.712 202.595 111.04C202.147 110.349 201.923 109.575 201.923 108.716C201.923 107.372 202.418 106.299 203.407 105.496C204.415 104.675 205.993 104.264 208.139 104.264H212.003V104.04C212.003 102.995 211.686 102.192 211.051 101.632C210.435 101.072 209.511 100.792 208.279 100.792C207.439 100.792 206.609 100.923 205.787 101.184C204.985 101.445 204.303 101.809 203.743 102.276L202.371 99.728C203.155 99.1307 204.098 98.6733 205.199 98.356C206.301 98.0387 207.467 97.88 208.699 97.88ZM208.223 110.648C209.101 110.648 209.875 110.452 210.547 110.06C211.238 109.649 211.723 109.071 212.003 108.324V106.588H208.391C206.375 106.588 205.367 107.251 205.367 108.576C205.367 109.211 205.619 109.715 206.123 110.088C206.627 110.461 207.327 110.648 208.223 110.648ZM232.354 113.196C231.14 113.196 229.955 113.037 228.798 112.72C227.64 112.403 226.716 112.001 226.026 111.516L227.37 108.856C228.042 109.304 228.844 109.668 229.778 109.948C230.73 110.209 231.663 110.34 232.578 110.34C234.668 110.34 235.714 109.789 235.714 108.688C235.714 108.165 235.443 107.801 234.902 107.596C234.379 107.391 233.53 107.195 232.354 107.008C231.122 106.821 230.114 106.607 229.33 106.364C228.564 106.121 227.892 105.701 227.314 105.104C226.754 104.488 226.474 103.639 226.474 102.556C226.474 101.137 227.062 100.008 228.238 99.168C229.432 98.3093 231.038 97.88 233.054 97.88C234.08 97.88 235.107 98.0013 236.134 98.244C237.16 98.468 238 98.776 238.654 99.168L237.31 101.828C236.04 101.081 234.612 100.708 233.026 100.708C231.999 100.708 231.215 100.867 230.674 101.184C230.151 101.483 229.89 101.884 229.89 102.388C229.89 102.948 230.17 103.349 230.73 103.592C231.308 103.816 232.195 104.031 233.39 104.236C234.584 104.423 235.564 104.637 236.33 104.88C237.095 105.123 237.748 105.533 238.29 106.112C238.85 106.691 239.13 107.512 239.13 108.576C239.13 109.976 238.523 111.096 237.31 111.936C236.096 112.776 234.444 113.196 232.354 113.196ZM247.856 97.88C250.058 97.88 251.738 98.412 252.896 99.476C254.072 100.521 254.66 102.108 254.66 104.236V113H251.356V111.18C250.926 111.833 250.31 112.337 249.508 112.692C248.724 113.028 247.772 113.196 246.652 113.196C245.532 113.196 244.552 113.009 243.712 112.636C242.872 112.244 242.218 111.712 241.752 111.04C241.304 110.349 241.08 109.575 241.08 108.716C241.08 107.372 241.574 106.299 242.564 105.496C243.572 104.675 245.149 104.264 247.296 104.264H251.16V104.04C251.16 102.995 250.842 102.192 250.208 101.632C249.592 101.072 248.668 100.792 247.436 100.792C246.596 100.792 245.765 100.923 244.944 101.184C244.141 101.445 243.46 101.809 242.9 102.276L241.528 99.728C242.312 99.1307 243.254 98.6733 244.356 98.356C245.457 98.0387 246.624 97.88 247.856 97.88ZM247.38 110.648C248.257 110.648 249.032 110.452 249.704 110.06C250.394 109.649 250.88 109.071 251.16 108.324V106.588H247.548C245.532 106.588 244.524 107.251 244.524 108.576C244.524 109.211 244.776 109.715 245.28 110.088C245.784 110.461 246.484 110.648 247.38 110.648ZM259.151 92.224H262.651V113H259.151V92.224ZM272.957 97.88C275.16 97.88 276.84 98.412 277.997 99.476C279.173 100.521 279.761 102.108 279.761 104.236V113H276.457V111.18C276.028 111.833 275.412 112.337 274.609 112.692C273.825 113.028 272.873 113.196 271.753 113.196C270.633 113.196 269.653 113.009 268.813 112.636C267.973 112.244 267.32 111.712 266.853 111.04C266.405 110.349 266.181 109.575 266.181 108.716C266.181 107.372 266.676 106.299 267.665 105.496C268.673 104.675 270.251 104.264 272.397 104.264H276.261V104.04C276.261 102.995 275.944 102.192 275.309 101.632C274.693 101.072 273.769 100.792 272.537 100.792C271.697 100.792 270.867 100.923 270.045 101.184C269.243 101.445 268.561 101.809 268.001 102.276L266.629 99.728C267.413 99.1307 268.356 98.6733 269.457 98.356C270.559 98.0387 271.725 97.88 272.957 97.88ZM272.481 110.648C273.359 110.648 274.133 110.452 274.805 110.06C275.496 109.649 275.981 109.071 276.261 108.324V106.588H272.649C270.633 106.588 269.625 107.251 269.625 108.576C269.625 109.211 269.877 109.715 270.381 110.088C270.885 110.461 271.585 110.648 272.481 110.648ZM299.034 92.224V113H295.674V111.068C295.095 111.777 294.376 112.309 293.518 112.664C292.678 113.019 291.744 113.196 290.718 113.196C289.28 113.196 287.983 112.879 286.826 112.244C285.687 111.609 284.791 110.713 284.138 109.556C283.484 108.38 283.158 107.036 283.158 105.524C283.158 104.012 283.484 102.677 284.138 101.52C284.791 100.363 285.687 99.4667 286.826 98.832C287.983 98.1973 289.28 97.88 290.718 97.88C291.707 97.88 292.612 98.048 293.434 98.384C294.255 98.72 294.955 99.224 295.534 99.896V92.224H299.034ZM291.138 110.2C291.978 110.2 292.734 110.013 293.406 109.64C294.078 109.248 294.61 108.697 295.002 107.988C295.394 107.279 295.59 106.457 295.59 105.524C295.59 104.591 295.394 103.769 295.002 103.06C294.61 102.351 294.078 101.809 293.406 101.436C292.734 101.044 291.978 100.848 291.138 100.848C290.298 100.848 289.542 101.044 288.87 101.436C288.198 101.809 287.666 102.351 287.274 103.06C286.882 103.769 286.686 104.591 286.686 105.524C286.686 106.457 286.882 107.279 287.274 107.988C287.666 108.697 288.198 109.248 288.87 109.64C289.542 110.013 290.298 110.2 291.138 110.2ZM309.324 97.88C311.527 97.88 313.207 98.412 314.364 99.476C315.54 100.521 316.128 102.108 316.128 104.236V113H312.824V111.18C312.395 111.833 311.779 112.337 310.976 112.692C310.192 113.028 309.24 113.196 308.12 113.196C307 113.196 306.02 113.009 305.18 112.636C304.34 112.244 303.687 111.712 303.22 111.04C302.772 110.349 302.548 109.575 302.548 108.716C302.548 107.372 303.043 106.299 304.032 105.496C305.04 104.675 306.618 104.264 308.764 104.264H312.628V104.04C312.628 102.995 312.311 102.192 311.676 101.632C311.06 101.072 310.136 100.792 308.904 100.792C308.064 100.792 307.234 100.923 306.412 101.184C305.61 101.445 304.928 101.809 304.368 102.276L302.996 99.728C303.78 99.1307 304.723 98.6733 305.824 98.356C306.926 98.0387 308.092 97.88 309.324 97.88ZM308.848 110.648C309.726 110.648 310.5 110.452 311.172 110.06C311.863 109.649 312.348 109.071 312.628 108.324V106.588H309.016C307 106.588 305.992 107.251 305.992 108.576C305.992 109.211 306.244 109.715 306.748 110.088C307.252 110.461 307.952 110.648 308.848 110.648ZM342.415 105.608C342.415 105.851 342.396 106.196 342.359 106.644H330.627C330.832 107.745 331.364 108.623 332.223 109.276C333.1 109.911 334.183 110.228 335.471 110.228C337.113 110.228 338.467 109.687 339.531 108.604L341.407 110.76C340.735 111.563 339.885 112.169 338.859 112.58C337.832 112.991 336.675 113.196 335.387 113.196C333.744 113.196 332.297 112.869 331.047 112.216C329.796 111.563 328.825 110.657 328.135 109.5C327.463 108.324 327.127 106.999 327.127 105.524C327.127 104.068 327.453 102.761 328.107 101.604C328.779 100.428 329.703 99.5133 330.879 98.86C332.055 98.2067 333.38 97.88 334.855 97.88C336.311 97.88 337.608 98.2067 338.747 98.86C339.904 99.4947 340.8 100.4 341.435 101.576C342.088 102.733 342.415 104.077 342.415 105.608ZM334.855 100.68C333.735 100.68 332.783 101.016 331.999 101.688C331.233 102.341 330.767 103.219 330.599 104.32H339.083C338.933 103.237 338.476 102.36 337.711 101.688C336.945 101.016 335.993 100.68 334.855 100.68ZM34.628 148.232C35.636 146.664 37.4093 145.88 39.948 145.88V149.212C39.6493 149.156 39.3787 149.128 39.136 149.128C37.7733 149.128 36.7093 149.529 35.944 150.332C35.1787 151.116 34.796 152.255 34.796 153.748V161H31.296V146.048H34.628V148.232ZM56.8364 153.608C56.8364 153.851 56.8177 154.196 56.7804 154.644H45.0484C45.2537 155.745 45.7857 156.623 46.6444 157.276C47.5217 157.911 48.6044 158.228 49.8924 158.228C51.535 158.228 52.8884 157.687 53.9524 156.604L55.8284 158.76C55.1564 159.563 54.307 160.169 53.2804 160.58C52.2537 160.991 51.0964 161.196 49.8084 161.196C48.1657 161.196 46.719 160.869 45.4684 160.216C44.2177 159.563 43.247 158.657 42.5564 157.5C41.8844 156.324 41.5484 154.999 41.5484 153.524C41.5484 152.068 41.875 150.761 42.5284 149.604C43.2004 148.428 44.1244 147.513 45.3004 146.86C46.4764 146.207 47.8017 145.88 49.2764 145.88C50.7324 145.88 52.0297 146.207 53.1684 146.86C54.3257 147.495 55.2217 148.4 55.8564 149.576C56.5097 150.733 56.8364 152.077 56.8364 153.608ZM49.2764 148.68C48.1564 148.68 47.2044 149.016 46.4204 149.688C45.655 150.341 45.1884 151.219 45.0204 152.32H53.5044C53.355 151.237 52.8977 150.36 52.1324 149.688C51.367 149.016 50.415 148.68 49.2764 148.68ZM67.0583 161.196C65.509 161.196 64.1183 160.869 62.8863 160.216C61.6543 159.563 60.693 158.657 60.0023 157.5C59.3117 156.324 58.9663 154.999 58.9663 153.524C58.9663 152.049 59.3117 150.733 60.0023 149.576C60.693 148.419 61.645 147.513 62.8583 146.86C64.0903 146.207 65.4903 145.88 67.0583 145.88C68.533 145.88 69.821 146.179 70.9223 146.776C72.0423 147.373 72.8823 148.232 73.4423 149.352L70.7543 150.92C70.325 150.229 69.7837 149.716 69.1303 149.38C68.4957 149.025 67.7957 148.848 67.0303 148.848C65.7237 148.848 64.641 149.277 63.7823 150.136C62.9237 150.976 62.4943 152.105 62.4943 153.524C62.4943 154.943 62.9143 156.081 63.7543 156.94C64.613 157.78 65.705 158.2 67.0303 158.2C67.7957 158.2 68.4957 158.032 69.1303 157.696C69.7837 157.341 70.325 156.819 70.7543 156.128L73.4423 157.696C72.8637 158.816 72.0143 159.684 70.8943 160.3C69.793 160.897 68.5143 161.196 67.0583 161.196ZM90.3051 153.608C90.3051 153.851 90.2865 154.196 90.2491 154.644H78.5171C78.7225 155.745 79.2545 156.623 80.1131 157.276C80.9905 157.911 82.0731 158.228 83.3611 158.228C85.0038 158.228 86.3571 157.687 87.4211 156.604L89.2971 158.76C88.6251 159.563 87.7758 160.169 86.7491 160.58C85.7225 160.991 84.5651 161.196 83.2771 161.196C81.6345 161.196 80.1878 160.869 78.9371 160.216C77.6865 159.563 76.7158 158.657 76.0251 157.5C75.3531 156.324 75.0171 154.999 75.0171 153.524C75.0171 152.068 75.3438 150.761 75.9971 149.604C76.6691 148.428 77.5931 147.513 78.7691 146.86C79.9451 146.207 81.2705 145.88 82.7451 145.88C84.2011 145.88 85.4985 146.207 86.6371 146.86C87.7945 147.495 88.6905 148.4 89.3251 149.576C89.9785 150.733 90.3051 152.077 90.3051 153.608ZM82.7451 148.68C81.6251 148.68 80.6731 149.016 79.8891 149.688C79.1238 150.341 78.6571 151.219 78.4891 152.32H86.9731C86.8238 151.237 86.3665 150.36 85.6011 149.688C84.8358 149.016 83.8838 148.68 82.7451 148.68ZM101.955 145.88C103.411 145.88 104.708 146.197 105.847 146.832C107.004 147.467 107.91 148.363 108.563 149.52C109.216 150.677 109.543 152.012 109.543 153.524C109.543 155.036 109.216 156.38 108.563 157.556C107.91 158.713 107.004 159.609 105.847 160.244C104.708 160.879 103.411 161.196 101.955 161.196C100.928 161.196 99.9858 161.019 99.1271 160.664C98.2871 160.309 97.5778 159.777 96.9991 159.068V161H93.6671V140.224H97.1671V147.868C97.7644 147.215 98.4644 146.72 99.2671 146.384C100.088 146.048 100.984 145.88 101.955 145.88ZM101.563 158.2C102.851 158.2 103.906 157.771 104.727 156.912C105.567 156.053 105.987 154.924 105.987 153.524C105.987 152.124 105.567 150.995 104.727 150.136C103.906 149.277 102.851 148.848 101.563 148.848C100.723 148.848 99.9671 149.044 99.2951 149.436C98.6231 149.809 98.0911 150.351 97.6991 151.06C97.3071 151.769 97.1111 152.591 97.1111 153.524C97.1111 154.457 97.3071 155.279 97.6991 155.988C98.0911 156.697 98.6231 157.248 99.2951 157.64C99.9671 158.013 100.723 158.2 101.563 158.2ZM118.383 145.88C120.586 145.88 122.266 146.412 123.423 147.476C124.599 148.521 125.187 150.108 125.187 152.236V161H121.883V159.18C121.454 159.833 120.838 160.337 120.035 160.692C119.251 161.028 118.299 161.196 117.179 161.196C116.059 161.196 115.079 161.009 114.239 160.636C113.399 160.244 112.746 159.712 112.279 159.04C111.831 158.349 111.607 157.575 111.607 156.716C111.607 155.372 112.102 154.299 113.091 153.496C114.099 152.675 115.676 152.264 117.823 152.264H121.687V152.04C121.687 150.995 121.37 150.192 120.735 149.632C120.119 149.072 119.195 148.792 117.963 148.792C117.123 148.792 116.292 148.923 115.471 149.184C114.668 149.445 113.987 149.809 113.427 150.276L112.055 147.728C112.839 147.131 113.782 146.673 114.883 146.356C115.984 146.039 117.151 145.88 118.383 145.88ZM117.907 158.648C118.784 158.648 119.559 158.452 120.231 158.06C120.922 157.649 121.407 157.071 121.687 156.324V154.588H118.075C116.059 154.588 115.051 155.251 115.051 156.576C115.051 157.211 115.303 157.715 115.807 158.088C116.311 158.461 117.011 158.648 117.907 158.648ZM144.137 161.196C142.625 161.196 141.262 160.869 140.049 160.216C138.836 159.563 137.884 158.657 137.193 157.5C136.521 156.324 136.185 154.999 136.185 153.524C136.185 152.049 136.521 150.733 137.193 149.576C137.884 148.419 138.836 147.513 140.049 146.86C141.262 146.207 142.625 145.88 144.137 145.88C145.668 145.88 147.04 146.207 148.253 146.86C149.466 147.513 150.409 148.419 151.081 149.576C151.772 150.733 152.117 152.049 152.117 153.524C152.117 154.999 151.772 156.324 151.081 157.5C150.409 158.657 149.466 159.563 148.253 160.216C147.04 160.869 145.668 161.196 144.137 161.196ZM144.137 158.2C145.425 158.2 146.489 157.771 147.329 156.912C148.169 156.053 148.589 154.924 148.589 153.524C148.589 152.124 148.169 150.995 147.329 150.136C146.489 149.277 145.425 148.848 144.137 148.848C142.849 148.848 141.785 149.277 140.945 150.136C140.124 150.995 139.713 152.124 139.713 153.524C139.713 154.924 140.124 156.053 140.945 156.912C141.785 157.771 142.849 158.2 144.137 158.2ZM169.94 146.048V161H166.608V159.096C166.048 159.768 165.348 160.291 164.508 160.664C163.668 161.019 162.763 161.196 161.792 161.196C159.795 161.196 158.217 160.645 157.06 159.544C155.921 158.424 155.352 156.772 155.352 154.588V146.048H158.852V154.112C158.852 155.456 159.151 156.464 159.748 157.136C160.364 157.789 161.232 158.116 162.352 158.116C163.603 158.116 164.592 157.733 165.32 156.968C166.067 156.184 166.44 155.064 166.44 153.608V146.048H169.94ZM183.511 160.188C183.1 160.524 182.596 160.776 181.999 160.944C181.42 161.112 180.804 161.196 180.151 161.196C178.508 161.196 177.239 160.767 176.343 159.908C175.447 159.049 174.999 157.799 174.999 156.156V148.96H172.535V146.16H174.999V142.744H178.499V146.16H182.503V148.96H178.499V156.072C178.499 156.8 178.676 157.36 179.031 157.752C179.385 158.125 179.899 158.312 180.571 158.312C181.355 158.312 182.008 158.107 182.531 157.696L183.511 160.188ZM189.722 148.232C190.73 146.664 192.503 145.88 195.042 145.88V149.212C194.743 149.156 194.472 149.128 194.23 149.128C192.867 149.128 191.803 149.529 191.038 150.332C190.272 151.116 189.89 152.255 189.89 153.748V161H186.39V146.048H189.722V148.232ZM203.641 145.88C205.843 145.88 207.523 146.412 208.681 147.476C209.857 148.521 210.445 150.108 210.445 152.236V161H207.141V159.18C206.711 159.833 206.095 160.337 205.293 160.692C204.509 161.028 203.557 161.196 202.437 161.196C201.317 161.196 200.337 161.009 199.497 160.636C198.657 160.244 198.003 159.712 197.537 159.04C197.089 158.349 196.865 157.575 196.865 156.716C196.865 155.372 197.359 154.299 198.349 153.496C199.357 152.675 200.934 152.264 203.081 152.264H206.945V152.04C206.945 150.995 206.627 150.192 205.993 149.632C205.377 149.072 204.453 148.792 203.221 148.792C202.381 148.792 201.55 148.923 200.729 149.184C199.926 149.445 199.245 149.809 198.685 150.276L197.313 147.728C198.097 147.131 199.039 146.673 200.141 146.356C201.242 146.039 202.409 145.88 203.641 145.88ZM203.165 158.648C204.042 158.648 204.817 158.452 205.489 158.06C206.179 157.649 206.665 157.071 206.945 156.324V154.588H203.333C201.317 154.588 200.309 155.251 200.309 156.576C200.309 157.211 200.561 157.715 201.065 158.088C201.569 158.461 202.269 158.648 203.165 158.648Z" fill="white"/>
<path d="M237.515 146.048V158.732C237.515 163.996 234.827 166.628 229.451 166.628C228.014 166.628 226.651 166.441 225.363 166.068C224.075 165.713 223.011 165.191 222.171 164.5L223.739 161.868C224.392 162.409 225.214 162.839 226.203 163.156C227.211 163.492 228.228 163.66 229.255 163.66C230.898 163.66 232.102 163.287 232.867 162.54C233.632 161.793 234.015 160.655 234.015 159.124V158.34C233.418 158.993 232.69 159.488 231.831 159.824C230.972 160.16 230.03 160.328 229.003 160.328C227.584 160.328 226.296 160.029 225.139 159.432C224 158.816 223.095 157.957 222.423 156.856C221.77 155.755 221.443 154.495 221.443 153.076C221.443 151.657 221.77 150.407 222.423 149.324C223.095 148.223 224 147.373 225.139 146.776C226.296 146.179 227.584 145.88 229.003 145.88C230.086 145.88 231.066 146.057 231.943 146.412C232.839 146.767 233.586 147.308 234.183 148.036V146.048H237.515ZM229.535 157.36C230.86 157.36 231.943 156.968 232.783 156.184C233.642 155.381 234.071 154.345 234.071 153.076C234.071 151.825 233.642 150.808 232.783 150.024C231.943 149.24 230.86 148.848 229.535 148.848C228.191 148.848 227.09 149.24 226.231 150.024C225.391 150.808 224.971 151.825 224.971 153.076C224.971 154.345 225.391 155.381 226.231 156.184C227.09 156.968 228.191 157.36 229.535 157.36ZM245.448 148.232C246.456 146.664 248.23 145.88 250.768 145.88V149.212C250.47 149.156 250.199 149.128 249.956 149.128C248.594 149.128 247.53 149.529 246.764 150.332C245.999 151.116 245.616 152.255 245.616 153.748V161H242.116V146.048H245.448V148.232ZM259.367 145.88C261.57 145.88 263.25 146.412 264.407 147.476C265.583 148.521 266.171 150.108 266.171 152.236V161H262.867V159.18C262.438 159.833 261.822 160.337 261.019 160.692C260.235 161.028 259.283 161.196 258.163 161.196C257.043 161.196 256.063 161.009 255.223 160.636C254.383 160.244 253.73 159.712 253.263 159.04C252.815 158.349 252.591 157.575 252.591 156.716C252.591 155.372 253.086 154.299 254.075 153.496C255.083 152.675 256.661 152.264 258.807 152.264H262.671V152.04C262.671 150.995 262.354 150.192 261.719 149.632C261.103 149.072 260.179 148.792 258.947 148.792C258.107 148.792 257.277 148.923 256.455 149.184C255.653 149.445 254.971 149.809 254.411 150.276L253.039 147.728C253.823 147.131 254.766 146.673 255.867 146.356C256.969 146.039 258.135 145.88 259.367 145.88ZM258.891 158.648C259.769 158.648 260.543 158.452 261.215 158.06C261.906 157.649 262.391 157.071 262.671 156.324V154.588H259.059C257.043 154.588 256.035 155.251 256.035 156.576C256.035 157.211 256.287 157.715 256.791 158.088C257.295 158.461 257.995 158.648 258.891 158.648ZM261.103 140.168H265.219L260.347 144.004H257.323L261.103 140.168ZM279.651 160.188C279.241 160.524 278.737 160.776 278.139 160.944C277.561 161.112 276.945 161.196 276.291 161.196C274.649 161.196 273.379 160.767 272.483 159.908C271.587 159.049 271.139 157.799 271.139 156.156V148.96H268.675V146.16H271.139V142.744H274.639V146.16H278.643V148.96H274.639V156.072C274.639 156.8 274.817 157.36 275.171 157.752C275.526 158.125 276.039 158.312 276.711 158.312C277.495 158.312 278.149 158.107 278.671 157.696L279.651 160.188ZM282.53 146.048H286.03V161H282.53V146.048ZM284.294 143.584C283.66 143.584 283.128 143.388 282.698 142.996C282.269 142.585 282.054 142.081 282.054 141.484C282.054 140.887 282.269 140.392 282.698 140C283.128 139.589 283.66 139.384 284.294 139.384C284.929 139.384 285.461 139.58 285.89 139.972C286.32 140.345 286.534 140.821 286.534 141.4C286.534 142.016 286.32 142.539 285.89 142.968C285.48 143.379 284.948 143.584 284.294 143.584ZM295.244 161.196C294.031 161.196 292.845 161.037 291.688 160.72C290.531 160.403 289.607 160.001 288.916 159.516L290.26 156.856C290.932 157.304 291.735 157.668 292.668 157.948C293.62 158.209 294.553 158.34 295.468 158.34C297.559 158.34 298.604 157.789 298.604 156.688C298.604 156.165 298.333 155.801 297.792 155.596C297.269 155.391 296.42 155.195 295.244 155.008C294.012 154.821 293.004 154.607 292.22 154.364C291.455 154.121 290.783 153.701 290.204 153.104C289.644 152.488 289.364 151.639 289.364 150.556C289.364 149.137 289.952 148.008 291.128 147.168C292.323 146.309 293.928 145.88 295.944 145.88C296.971 145.88 297.997 146.001 299.024 146.244C300.051 146.468 300.891 146.776 301.544 147.168L300.2 149.828C298.931 149.081 297.503 148.708 295.916 148.708C294.889 148.708 294.105 148.867 293.564 149.184C293.041 149.483 292.78 149.884 292.78 150.388C292.78 150.948 293.06 151.349 293.62 151.592C294.199 151.816 295.085 152.031 296.28 152.236C297.475 152.423 298.455 152.637 299.22 152.88C299.985 153.123 300.639 153.533 301.18 154.112C301.74 154.691 302.02 155.512 302.02 156.576C302.02 157.976 301.413 159.096 300.2 159.936C298.987 160.776 297.335 161.196 295.244 161.196ZM306.154 161.196C305.52 161.196 304.978 160.981 304.53 160.552C304.082 160.104 303.858 159.544 303.858 158.872C303.858 158.181 304.073 157.621 304.502 157.192C304.95 156.763 305.501 156.548 306.154 156.548C306.808 156.548 307.349 156.763 307.778 157.192C308.226 157.621 308.45 158.181 308.45 158.872C308.45 159.544 308.226 160.104 307.778 160.552C307.33 160.981 306.789 161.196 306.154 161.196Z" fill="#FFDB6A"/>
</svg>
