<svg width="30" height="30" viewBox="0 0 30 30" fill="none" xmlns="http://www.w3.org/2000/svg">
<path d="M8.75003 22.5C7.37503 22.5 6.26253 23.625 6.26253 25C6.26253 26.375 7.37503 27.5 8.75003 27.5C10.125 27.5 11.25 26.375 11.25 25C11.25 23.625 10.125 22.5 8.75003 22.5ZM1.25003 3.75C1.25003 4.4375 1.81253 5 2.50003 5H3.75003L8.25003 14.4875L6.56253 17.5375C5.65003 19.2125 6.85003 21.25 8.75003 21.25H22.5C23.1875 21.25 23.75 20.6875 23.75 20C23.75 19.3125 23.1875 18.75 22.5 18.75H8.75003L10.125 16.25H19.4375C20.375 16.25 21.2 15.7375 21.625 14.9625L26.1 6.85C26.5625 6.025 25.9625 5 25.0125 5H6.51253L5.67503 3.2125C5.47503 2.775 5.02503 2.5 4.55003 2.5H2.50003C1.81253 2.5 1.25003 3.0625 1.25003 3.75ZM21.25 22.5C19.875 22.5 18.7625 23.625 18.7625 25C18.7625 26.375 19.875 27.5 21.25 27.5C22.625 27.5 23.75 26.375 23.75 25C23.75 23.625 22.625 22.5 21.25 22.5Z" fill="#323232"/>
</svg>
