<svg width="44" height="42" viewBox="0 0 44 42" fill="none" xmlns="http://www.w3.org/2000/svg">
<path d="M21.0489 0.92705C21.3483 0.00573897 22.6517 0.00574017 22.9511 0.927051L27.3883 14.5836C27.5222 14.9956 27.9062 15.2746 28.3394 15.2746H42.6987C43.6675 15.2746 44.0702 16.5142 43.2865 17.0836L31.6696 25.5238C31.3191 25.7784 31.1724 26.2298 31.3063 26.6418L35.7436 40.2984C36.0429 41.2197 34.9884 41.9858 34.2047 41.4164L22.5878 32.9762C22.2373 32.7216 21.7627 32.7216 21.4122 32.9762L9.79527 41.4164C9.01155 41.9858 7.95707 41.2197 8.25642 40.2984L12.6937 26.6418C12.8276 26.2298 12.6809 25.7784 12.3304 25.5238L0.713483 17.0836C-0.0702302 16.5142 0.332547 15.2746 1.30127 15.2746H15.6606C16.0938 15.2746 16.4778 14.9956 16.6117 14.5836L21.0489 0.92705Z" fill="#FFDB6A"/>
</svg>
