<svg width="30" height="25" viewBox="0 0 30 25" fill="none" xmlns="http://www.w3.org/2000/svg">
<path d="M26.4662 3.84243C27.7518 3.07384 28.7138 1.86361 29.1725 0.437709C27.9644 1.15451 26.6427 1.65945 25.2644 1.93068C23.3535 -0.0907443 20.3258 -0.582667 17.8732 0.729786C15.4206 2.04224 14.1503 4.83415 14.772 7.54546C9.82351 7.29703 5.21317 4.95953 2.08815 1.11464C0.457271 3.92765 1.29069 7.52364 3.99273 9.33244C3.01565 9.30103 2.06023 9.03648 1.20614 8.56086C1.20614 8.58667 1.20614 8.61249 1.20614 8.6383C1.2067 11.5685 3.27188 14.0926 6.14399 14.6733C5.23769 14.9199 4.28703 14.9562 3.36457 14.7794C4.17229 17.2853 6.48181 19.002 9.11416 19.0533C6.93398 20.7644 4.24153 21.6924 1.47003 21.6878C0.97878 21.6885 0.48792 21.6603 0 21.6032C2.8144 23.4117 6.09002 24.3717 9.43541 24.3683C14.0897 24.4003 18.5625 22.5654 21.8535 19.2741C25.1445 15.9829 26.979 11.5099 26.9466 6.85563C26.9466 6.58887 26.9404 6.32355 26.928 6.05966C28.1334 5.18855 29.1736 4.1094 30 2.87293C28.8771 3.37068 27.6859 3.69747 26.4662 3.84243Z" fill="#E8E7E7"/>
</svg>
