<svg width="40" height="40" viewBox="0 0 40 40" fill="none" xmlns="http://www.w3.org/2000/svg">
<path d="M15.6237 13.6017C16.6747 12.2521 18.2896 11.463 20.0001 11.463C21.7107 11.463 23.3256 12.2521 24.3766 13.6017L24.4476 13.6929C25.5084 15.055 25.9053 16.8198 25.5297 18.5049L25.4845 18.7074C25.1143 20.3683 24.0114 21.7719 22.4853 22.5245C20.9186 23.2971 19.0817 23.2971 17.515 22.5245C15.9888 21.7719 14.8859 20.3683 14.5157 18.7074L14.4706 18.5049C14.095 16.8198 14.4918 15.055 15.5526 13.6929L15.6237 13.6017Z" fill="#13EF43"/>
<path fill-rule="evenodd" clip-rule="evenodd" d="M20.0001 11.463C18.2896 11.463 16.6747 12.2521 15.6237 13.6017L15.5526 13.6929C14.4918 15.055 14.095 16.8198 14.4706 18.5049L14.5157 18.7074C14.8859 20.3683 15.9888 21.7719 17.515 22.5245C19.0817 23.2971 20.9186 23.2971 22.4853 22.5245C24.0114 21.7719 25.1143 20.3683 25.4845 18.7074L25.5297 18.5049C25.9053 16.8198 25.5084 15.055 24.4476 13.6929L24.3766 13.6017C23.3256 12.2521 21.7107 11.463 20.0001 11.463Z" fill="#13EF43"/>
<path fill-rule="evenodd" clip-rule="evenodd" d="M0 20C0 8.9543 8.9543 0 20 0C31.0457 0 40 8.9543 40 20C40 31.0457 31.0457 40 20 40C8.9543 40 0 31.0457 0 20ZM13.0786 11.6197C14.7408 9.48528 17.2948 8.23715 20.0001 8.23715C22.7054 8.23715 25.2594 9.48528 26.9217 11.6197L26.9927 11.7109C28.6451 13.8327 29.2633 16.5818 28.6782 19.2067L28.6331 19.4092C28.0503 22.0236 26.3143 24.233 23.912 25.4177C21.4459 26.6338 18.5544 26.6338 16.0883 25.4177C13.686 24.233 11.9499 22.0236 11.3672 19.4092L11.3221 19.2067C10.737 16.5818 11.3551 13.8327 13.0076 11.7109L13.0786 11.6197ZM15.6237 13.6017C16.6747 12.2521 18.2896 11.463 20.0001 11.463C21.7107 11.463 23.3256 12.2521 24.3766 13.6017L24.4476 13.6929C25.5084 15.055 25.9053 16.8198 25.5297 18.5049L25.4845 18.7074C25.1143 20.3683 24.0114 21.7719 22.4853 22.5245C20.9186 23.2971 19.0817 23.2971 17.515 22.5245C15.9888 21.7719 14.8859 20.3683 14.5157 18.7074L14.4706 18.5049C14.095 16.8198 14.4918 15.055 15.5526 13.6929L15.6237 13.6017ZM11.893 28.8183L12.9269 28.4462C17.4989 26.8012 22.5013 26.8012 27.0733 28.4462L28.1073 28.8183C29.4899 29.3157 30.7068 30.106 31.6983 31.1038C30.9545 31.8873 30.1328 32.596 29.2456 33.2178C28.6157 32.6275 27.862 32.1583 27.0151 31.8536L25.9812 31.4816C22.1151 30.0905 17.8851 30.0905 14.019 31.4816L12.9851 31.8536C12.1382 32.1583 11.3844 32.6275 10.7545 33.2179C9.86736 32.5961 9.04564 31.8874 8.30178 31.104C9.29332 30.1061 10.5103 29.3158 11.893 28.8183Z" fill="#13EF43"/>
</svg>
