<svg width="28" height="28" viewBox="0 0 28 28" fill="none" xmlns="http://www.w3.org/2000/svg">
<path d="M14.0001 7C18.4217 7 22.3651 9.485 24.2901 13.4167C23.6017 14.84 22.6334 16.065 21.4784 17.0567L23.1234 18.7017C24.7451 17.2667 26.0284 15.47 26.8334 13.4167C24.8151 8.295 19.8334 4.66667 14.0001 4.66667C12.5184 4.66667 11.0951 4.9 9.75341 5.33167L11.6784 7.25667C12.4367 7.105 13.2067 7 14.0001 7ZM12.7517 8.33L15.1667 10.745C15.8317 11.0367 16.3684 11.5733 16.6601 12.2383L19.0751 14.6533C19.1684 14.2567 19.2384 13.8367 19.2384 13.405C19.2501 10.5117 16.8934 8.16667 14.0001 8.16667C13.5684 8.16667 13.1601 8.225 12.7517 8.33ZM2.34508 4.515L5.47175 7.64167C3.57008 9.135 2.06508 11.1183 1.16675 13.4167C3.18508 18.5383 8.16675 22.1667 14.0001 22.1667C15.7734 22.1667 17.4767 21.8283 19.0401 21.21L23.0301 25.2L24.6751 23.555L3.99008 2.85834L2.34508 4.515ZM11.0951 13.265L14.1401 16.31C14.0934 16.3217 14.0467 16.3333 14.0001 16.3333C12.3901 16.3333 11.0834 15.0267 11.0834 13.4167C11.0834 13.3583 11.0951 13.3233 11.0951 13.265V13.265ZM7.12841 9.29834L9.17008 11.34C8.90175 11.9817 8.75008 12.6817 8.75008 13.4167C8.75008 16.31 11.1067 18.6667 14.0001 18.6667C14.7351 18.6667 15.4351 18.515 16.0651 18.2467L17.2084 19.39C16.1817 19.67 15.1084 19.8333 14.0001 19.8333C9.57841 19.8333 5.63508 17.3483 3.71008 13.4167C4.52675 11.7483 5.71675 10.3717 7.12841 9.29834Z" fill="#7A7878"/>
</svg>
