<svg width="28" height="28" viewBox="0 0 28 28" fill="none" xmlns="http://www.w3.org/2000/svg">
<path d="M14.0001 7.00001C18.4217 7.00001 22.3651 9.48501 24.2901 13.4167C22.3651 17.3483 18.4217 19.8333 14.0001 19.8333C9.57841 19.8333 5.63508 17.3483 3.71008 13.4167C5.63508 9.48501 9.57841 7.00001 14.0001 7.00001ZM14.0001 4.66667C8.16675 4.66667 3.18508 8.29501 1.16675 13.4167C3.18508 18.5383 8.16675 22.1667 14.0001 22.1667C19.8334 22.1667 24.8151 18.5383 26.8334 13.4167C24.8151 8.29501 19.8334 4.66667 14.0001 4.66667ZM14.0001 10.5C15.6101 10.5 16.9167 11.8067 16.9167 13.4167C16.9167 15.0267 15.6101 16.3333 14.0001 16.3333C12.3901 16.3333 11.0834 15.0267 11.0834 13.4167C11.0834 11.8067 12.3901 10.5 14.0001 10.5ZM14.0001 8.16667C11.1067 8.16667 8.75008 10.5233 8.75008 13.4167C8.75008 16.31 11.1067 18.6667 14.0001 18.6667C16.8934 18.6667 19.2501 16.31 19.2501 13.4167C19.2501 10.5233 16.8934 8.16667 14.0001 8.16667Z" fill="#7A7878"/>
</svg>
