<svg width="1440" height="45" viewBox="0 0 1440 45" fill="none" xmlns="http://www.w3.org/2000/svg">
<path d="M144 24.2152C144 24.2152 123.647 0 106.855 0C79.8869 0 0 24.2152 0 24.2152V45H1440V24.2152C1440 24.2152 1419.65 0 1402.86 0C1375.89 0 1296 24.2152 1296 24.2152C1296 24.2152 1275.65 0 1258.86 0C1231.89 0 1152 24.2152 1152 24.2152C1152 24.2152 1131.65 0 1114.86 0C1087.89 0 1008 24.2152 1008 24.2152C1008 24.2152 987.647 0 970.855 0C943.887 0 864 24.2152 864 24.2152C864 24.2152 843.647 0 826.855 0C799.887 0 720 24.2152 720 24.2152C720 24.2152 699.647 0 682.855 0C655.887 0 576 24.2152 576 24.2152C576 24.2152 555.647 0 538.855 0C511.887 0 432 24.2152 432 24.2152C432 24.2152 411.647 0 394.855 0C367.887 0 288 24.2152 288 24.2152C288 24.2152 267.647 0 250.855 0C223.887 0 144 24.2152 144 24.2152Z" fill="white"/>
</svg>
